<?xml version="1.0" encoding="UTF-8"?>
<svg width="20px" height="20px" viewBox="0 0 20 20" version="1.1" xmlns="http://www.w3.org/2000/svg" xmlns:xlink="http://www.w3.org/1999/xlink">
    <!-- Generator: Sketch 54.1 (76490) - https://sketchapp.com -->
    <title>Group 4</title>
    <desc>Created with Sketch.</desc>
    <g id="Web" stroke="none" stroke-width="1" fill="none" fill-rule="evenodd">
        <g id="Sample_icons" transform="translate(-1188.000000, -329.000000)">
            <g id="Group-4" transform="translate(1186.000000, 327.000000)">
                <g id="ic_Activity-Copy">
                    <rect id="Rectangle-Copy-2" x="0" y="0" width="24" height="24"></rect>
                </g>
                <g id="noun_notification_1304368" transform="translate(2.000000, 2.000000)" fill="#5B4FF7" fill-rule="nonzero">
                    <g id="Group">
                        <g id="Shape">
                            <path d="M19.2592593,14.2592593 C19.2592593,15.48575 18.2618393,16.4814815 17.0333729,16.4814815 L2.22588637,16.4814815 C0.996636926,16.4814815 0,15.4870914 0,14.2592593 C0,13.0330919 0.995801481,12.037037 2.22299515,12.037037 C2.22155359,12.037037 2.22222222,7.59231459 2.22222222,7.59231459 C2.22222222,3.50040622 5.538122,0.185185185 9.62962963,0.185185185 C13.7211647,0.185185185 17.037037,3.50119737 17.037037,7.59231459 L17.037037,12.0363914 C18.2616268,12.037037 19.2592593,13.0327054 19.2592593,14.2592593 Z M17.0362641,13.5185185 C16.2176825,13.5185185 15.5555556,12.856713 15.5555556,12.0363914 L15.5555556,7.59231459 C15.5555556,4.319383 12.9029511,1.66666667 9.62962963,1.66666667 C6.35625374,1.66666667 3.7037037,4.31867374 3.7037037,7.59231459 L3.7037037,12.0363914 C3.7037037,12.8543639 3.03995715,13.5185185 2.22299515,13.5185185 C1.81408548,13.5185185 1.48148148,13.8512071 1.48148148,14.2592593 C1.48148148,14.6681423 1.814089,15 2.22588637,15 L17.0333729,15 C17.4442011,15 17.7777778,14.666988 17.7777778,14.2592593 C17.7777778,13.8515593 17.44408,13.5185185 17.0362641,13.5185185 Z M6.2962963,16.4814815 L7.77777778,16.4814815 C7.77777778,17.504231 8.60688011,18.3333333 9.62962963,18.3333333 C10.6523791,18.3333333 11.4814815,17.504231 11.4814815,16.4814815 L12.962963,16.4814815 C12.962963,18.3224306 11.4705788,19.8148148 9.62962963,19.8148148 C7.78868048,19.8148148 6.2962963,18.3224306 6.2962963,16.4814815 Z"></path>
                        </g>
                    </g>
                </g>
            </g>
        </g>
    </g>
</svg>